<?xml version="1.0" standalone="no"?><!DOCTYPE svg PUBLIC "-//W3C//DTD SVG 1.1//EN" "http://www.w3.org/Graphics/SVG/1.1/DTD/svg11.dtd"><svg t="1512110160625" class="icon" style="" viewBox="0 0 1024 1024" version="1.1" xmlns="http://www.w3.org/2000/svg" p-id="5913" xmlns:xlink="http://www.w3.org/1999/xlink" width="32" height="32"><defs><style type="text/css"></style></defs><path d="M512 63.136604C264.467673 63.136604 63.187769 264.518837 63.187769 511.948836c0 247.429999 201.279904 448.812231 448.812231 448.812231 247.429999 0 448.812231-201.382232 448.812231-448.812231C960.812231 264.518837 759.429999 63.136604 512 63.136604L512 63.136604zM512 127.296492c212.433696 0 384.652343 172.320975 384.652343 384.652343 0 85.751174-28.447287 164.646348-75.825322 228.601579-46.661737-73.267113-117.984611-129.138403-202.81483-154.413511 49.62926-33.973019 82.27201-90.969921 82.27201-155.539123 0-103.863296-84.420905-188.386529-188.386529-188.386529-103.863296 0-188.386529 84.523234-188.386529 188.386529 0 65.183172 33.25672 122.589387 83.704607 156.35775-84.72789 26.093734-155.948436 82.578995-201.996203 156.460078-48.708304-64.466873-77.87189-144.487659-77.87189-231.466773C127.347657 299.515139 299.566304 127.296492 512 127.296492L512 127.296492zM387.773359 430.597782c0-68.45768 55.666633-124.226641 124.226641-124.226641 68.560008 0 124.226641 55.666633 124.226641 124.226641 0 68.560008-55.87129 124.226641-124.32897 124.226641C443.54232 554.824423 387.773359 499.15779 387.773359 430.597782L387.773359 430.597782zM250.551014 793.55651c50.652543-94.142101 149.297092-158.608974 263.495553-158.608974 113.175177 0 211.103428 63.238933 262.369941 155.948436-68.969321 65.387829-161.781153 105.705206-264.31418 105.705206C410.89957 896.601179 319.213351 857.307085 250.551014 793.55651L250.551014 793.55651z" p-id="5914" fill="#ffffff"></path></svg>